<svg width="32" height="32" viewBox="0 0 32 32" fill="none" xmlns="http://www.w3.org/2000/svg">
  <!-- Background -->
  <rect width="32" height="32" rx="6" fill="#2563eb"/>
  
  <!-- QR Code Pattern -->
  <g fill="#ffffff">
    <!-- Top-left square -->
    <rect x="4" y="4" width="6" height="6" rx="1"/>
    <rect x="5" y="5" width="4" height="4"/>
    
    <!-- Top-right square -->
    <rect x="22" y="4" width="6" height="6" rx="1"/>
    <rect x="23" y="5" width="4" height="4"/>
    
    <!-- Bottom-left square -->
    <rect x="4" y="22" width="6" height="6" rx="1"/>
    <rect x="5" y="23" width="4" height="4"/>
    
    <!-- Alignment pattern -->
    <rect x="13" y="13" width="6" height="6" rx="1"/>
    <rect x="14" y="14" width="4" height="4"/>
    
    <!-- Data dots -->
    <rect x="11" y="6" width="1" height="1"/>
    <rect x="13" y="6" width="1" height="1"/>
    <rect x="15" y="6" width="1" height="1"/>
    <rect x="17" y="6" width="1" height="1"/>
    <rect x="18" y="7" width="1" height="1"/>
    <rect x="19" y="8" width="1" height="1"/>
    
    <rect x="6" y="11" width="1" height="1"/>
    <rect x="6" y="13" width="1" height="1"/>
    <rect x="6" y="15" width="1" height="1"/>
    <rect x="7" y="18" width="1" height="1"/>
    <rect x="8" y="19" width="1" height="1"/>
    
    <rect x="22" y="11" width="1" height="1"/>
    <rect x="24" y="11" width="1" height="1"/>
    <rect x="26" y="11" width="1" height="1"/>
    <rect x="22" y="13" width="1" height="1"/>
    <rect x="24" y="13" width="1" height="1"/>
    <rect x="26" y="13" width="1" height="1"/>
    <rect x="23" y="18" width="1" height="1"/>
    <rect x="25" y="18" width="1" height="1"/>
    <rect x="27" y="18" width="1" height="1"/>
    
    <rect x="11" y="22" width="1" height="1"/>
    <rect x="13" y="22" width="1" height="1"/>
    <rect x="15" y="22" width="1" height="1"/>
    <rect x="17" y="22" width="1" height="1"/>
    <rect x="18" y="23" width="1" height="1"/>
    <rect x="19" y="24" width="1" height="1"/>
    <rect x="20" y="25" width="1" height="1"/>
    <rect x="22" y="22" width="1" height="1"/>
    <rect x="24" y="22" width="1" height="1"/>
    <rect x="26" y="22" width="1" height="1"/>
    <rect x="23" y="25" width="1" height="1"/>
    <rect x="25" y="25" width="1" height="1"/>
    
    <!-- Barcode pattern on right side -->
    <rect x="20" y="12" width="1" height="8"/>
    <rect x="21" y="11" width="1" height="10"/>
    <rect x="22" y="13" width="1" height="6"/>
  </g>
</svg>

